<?xml version="1.0" standalone="no"?><!DOCTYPE svg PUBLIC "-//W3C//DTD SVG 1.1//EN" "http://www.w3.org/Graphics/SVG/1.1/DTD/svg11.dtd"><svg xmlns="http://www.w3.org/2000/svg" viewBox="0 0 650 600" version="1.1"><clipPath id="box"><rect x="0" y="0" width="650" height="600" style="fill:none;stroke:none;" /></clipPath><g clip-path="url(#box)"><rect x="0.00" y="0.00" width="650.00" height="600.00" style="fill:#FFFFFF;stroke:none;" /><path d="M325.00 0.00 L325.00 600.00 " style="fill:none;stroke:#000000;stroke-width:1;" /><path d="M318.50 600.00 L331.50 600.00 M318.50 500.00 L331.50 500.00 M318.50 400.00 L331.50 400.00 M318.50 300.00 L331.50 300.00 M318.50 200.00 L331.50 200.00 M318.50 100.00 L331.50 100.00 M318.50 0.00 L331.50 0.00 " style="fill:none;stroke:#000000;stroke-width:1;" /><path d="M0.00 300.00 L650.00 300.00 " style="fill:none;stroke:#000000;stroke-width:1;" /><path d="M0.00 293.50 L0.00 306.50 M108.33 293.50 L108.33 306.50 M216.67 293.50 L216.67 306.50 M325.00 293.50 L325.00 306.50 M433.33 293.50 L433.33 306.50 M541.67 293.50 L541.67 306.50 M650.00 293.50 L650.00 306.50 " style="fill:none;stroke:#000000;stroke-width:1;" /><text x="333.125" y="502.5" text-anchor="start" style="font:10px Droid Sans,Trebuchet MS,Arial,Helvetica,sans-serif;stroke:none;fill:#000000">-2</text><text x="333.125" y="402.5" text-anchor="start" style="font:10px Droid Sans,Trebuchet MS,Arial,Helvetica,sans-serif;stroke:none;fill:#000000">-1</text><text x="333.125" y="302.5" text-anchor="start" style="font:10px Droid Sans,Trebuchet MS,Arial,Helvetica,sans-serif;stroke:none;fill:#000000">0</text><text x="333.125" y="202.5" text-anchor="start" style="font:10px Droid Sans,Trebuchet MS,Arial,Helvetica,sans-serif;stroke:none;fill:#000000">1</text><text x="333.125" y="102.5" text-anchor="start" style="font:10px Droid Sans,Trebuchet MS,Arial,Helvetica,sans-serif;stroke:none;fill:#000000">2</text><text x="108.33333333333333" y="316.125" text-anchor="middle" style="font:10px Droid Sans,Trebuchet MS,Arial,Helvetica,sans-serif;stroke:none;fill:#000000">-2</text><text x="216.66666666666666" y="316.125" text-anchor="middle" style="font:10px Droid Sans,Trebuchet MS,Arial,Helvetica,sans-serif;stroke:none;fill:#000000">-1</text><text x="325" y="316.125" text-anchor="middle" style="font:10px Droid Sans,Trebuchet MS,Arial,Helvetica,sans-serif;stroke:none;fill:#000000">0</text><text x="433.3333333333333" y="316.125" text-anchor="middle" style="font:10px Droid Sans,Trebuchet MS,Arial,Helvetica,sans-serif;stroke:none;fill:#000000">1</text><text x="541.6666666666667" y="316.125" text-anchor="middle" style="font:10px Droid Sans,Trebuchet MS,Arial,Helvetica,sans-serif;stroke:none;fill:#000000">2</text><path d="M325.00 300.00 L327.00 299.75 L329.00 299.29 L331.00 298.70 L333.00 297.99 L335.00 297.20 L337.00 296.31 L339.00 295.35 L341.00 294.32 L342.94 293.26 L344.77 292.21 L346.50 291.16 L348.15 290.12 L349.74 289.08 L351.28 288.05 L352.77 287.02 L354.22 286.00 L355.62 284.97 L357.00 283.95 L358.34 282.93 L359.66 281.91 L360.95 280.89 L362.21 279.87 L363.45 278.85 L364.68 277.84 L365.88 276.82 L367.06 275.81 L368.23 274.79 L369.38 273.78 L370.52 272.77 L371.64 271.75 L372.75 270.74 L373.84 269.73 L374.92 268.72 L375.99 267.71 L377.05 266.70 L378.10 265.69 L379.13 264.68 L380.16 263.67 L381.18 262.66 L382.18 261.65 L383.18 260.64 L384.17 259.63 L385.15 258.62 L386.13 257.61 L387.09 256.61 L388.05 255.60 L389.00 254.59 L389.94 253.58 L390.88 252.58 L391.81 251.57 L392.73 250.56 L393.65 249.56 L394.56 248.55 L395.46 247.54 L396.36 246.54 L397.25 245.53 L398.14 244.52 L399.02 243.52 L399.90 242.51 L400.77 241.51 L401.64 240.50 L402.50 239.49 L403.35 238.49 L404.21 237.48 L405.05 236.48 L405.90 235.47 L406.73 234.47 L407.57 233.46 L408.40 232.46 L409.22 231.45 L410.04 230.45 L410.86 229.44 L411.67 228.44 L412.48 227.43 L413.29 226.43 L414.09 225.42 L414.89 224.42 L415.68 223.42 L416.47 222.41 L417.26 221.41 L418.05 220.40 L418.83 219.40 L419.60 218.39 L420.38 217.39 L421.15 216.39 L421.92 215.38 L422.68 214.38 L423.45 213.37 L424.20 212.37 L424.96 211.37 L425.71 210.36 L426.46 209.36 L427.21 208.36 L427.96 207.35 L428.70 206.35 L429.44 205.34 L430.18 204.34 L430.91 203.34 L431.64 202.33 L432.37 201.33 L433.10 200.33 L433.82 199.32 L434.54 198.32 L435.26 197.32 L435.98 196.31 L436.69 195.31 L437.41 194.31 L438.12 193.30 L438.82 192.30 L439.53 191.30 L440.23 190.29 L440.94 189.29 L441.63 188.29 L442.33 187.29 L443.03 186.28 L443.72 185.28 L444.41 184.28 L445.10 183.27 L445.79 182.27 L446.47 181.27 L447.15 180.27 L447.84 179.26 L448.51 178.26 L449.19 177.26 L449.87 176.25 L450.54 175.25 L451.21 174.25 L451.88 173.25 L452.55 172.24 L453.22 171.24 L453.88 170.24 L454.55 169.24 L455.21 168.23 L455.87 167.23 L456.52 166.23 L457.18 165.23 L457.83 164.22 L458.49 163.22 L459.14 162.22 L459.79 161.22 L460.44 160.21 L461.08 159.21 L461.73 158.21 L462.37 157.21 L463.02 156.20 L463.66 155.20 L464.29 154.20 L464.93 153.20 L465.57 152.19 L466.20 151.19 L466.84 150.19 L467.47 149.19 L468.10 148.19 L468.73 147.18 L469.36 146.18 L469.98 145.18 L470.61 144.18 L471.23 143.17 L471.85 142.17 L472.47 141.17 L473.09 140.17 L473.71 139.17 L474.33 138.16 L474.94 137.16 L475.56 136.16 L476.17 135.16 L476.78 134.16 L477.40 133.15 L478.01 132.15 L478.61 131.15 L479.22 130.15 L479.83 129.15 L480.43 128.14 L481.03 127.14 L481.64 126.14 L482.24 125.14 L482.84 124.14 L483.44 123.13 L484.03 122.13 L484.63 121.13 L485.23 120.13 L485.82 119.13 L486.41 118.13 L487.01 117.12 L487.60 116.12 L488.19 115.12 L488.78 114.12 L489.37 113.12 L489.95 112.11 L490.54 111.11 L491.12 110.11 L491.71 109.11 L492.29 108.11 L492.87 107.11 L493.45 106.10 L494.03 105.10 L494.61 104.10 L495.19 103.10 L495.76 102.10 L496.34 101.10 L496.91 100.09 L497.49 99.09 L498.06 98.09 L498.63 97.09 L499.20 96.09 L499.77 95.09 L500.34 94.08 L500.91 93.08 L501.48 92.08 L502.04 91.08 L502.61 90.08 L503.17 89.08 L503.74 88.07 L504.30 87.07 L504.86 86.07 L505.42 85.07 L505.98 84.07 L506.54 83.07 L507.10 82.06 L507.66 81.06 L508.22 80.06 L508.77 79.06 L509.33 78.06 L509.88 77.06 L510.43 76.06 L510.99 75.05 L511.54 74.05 L512.09 73.05 L512.64 72.05 L513.19 71.05 L513.74 70.05 L514.28 69.05 L514.83 68.04 L515.38 67.04 L515.92 66.04 L516.47 65.04 L517.01 64.04 L517.55 63.04 L518.09 62.04 L518.64 61.03 L519.18 60.03 L519.72 59.03 L520.26 58.03 L520.79 57.03 L521.33 56.03 L521.87 55.03 L522.40 54.02 L522.94 53.02 L523.47 52.02 L524.01 51.02 L524.54 50.02 L525.07 49.02 L525.61 48.02 L526.14 47.02 L526.67 46.01 L527.20 45.01 L527.73 44.01 L528.25 43.01 L528.78 42.01 L529.31 41.01 L529.84 40.01 L530.36 39.00 L530.89 38.00 L531.41 37.00 L531.93 36.00 L532.46 35.00 L532.98 34.00 L533.50 33.00 L534.02 32.00 L534.54 30.99 L535.06 29.99 L535.58 28.99 L536.10 27.99 L536.62 26.99 L537.13 25.99 L537.65 24.99 L538.17 23.99 L538.68 22.98 L539.19 21.98 L539.71 20.98 L540.22 19.98 L540.73 18.98 L541.25 17.98 L541.76 16.98 L542.27 15.98 L542.78 14.98 L543.29 13.97 L543.80 12.97 L544.31 11.97 L544.81 10.97 L545.32 9.97 L545.83 8.97 L546.33 7.97 L546.84 6.97 L547.35 5.96 L547.85 4.96 L548.35 3.96 L548.86 2.96 L549.36 1.96 L549.86 0.96 L550.36 -0.04 " style="fill:none;stroke:#0000FF;stroke-width:1;" /><path d="M325.00 300.00 L327.00 300.25 L329.00 300.71 L331.00 301.30 L333.00 302.01 L335.00 302.80 L337.00 303.69 L339.00 304.65 L341.00 305.68 L342.94 306.74 L344.77 307.79 L346.50 308.84 L348.15 309.88 L349.74 310.92 L351.28 311.95 L352.77 312.98 L354.22 314.00 L355.62 315.03 L357.00 316.05 L358.34 317.07 L359.66 318.09 L360.95 319.11 L362.21 320.13 L363.45 321.15 L364.68 322.16 L365.88 323.18 L367.06 324.19 L368.23 325.21 L369.38 326.22 L370.52 327.23 L371.64 328.25 L372.75 329.26 L373.84 330.27 L374.92 331.28 L375.99 332.29 L377.05 333.30 L378.10 334.31 L379.13 335.32 L380.16 336.33 L381.18 337.34 L382.18 338.35 L383.18 339.36 L384.17 340.37 L385.15 341.38 L386.13 342.39 L387.09 343.39 L388.05 344.40 L389.00 345.41 L389.94 346.42 L390.88 347.42 L391.81 348.43 L392.73 349.44 L393.65 350.44 L394.56 351.45 L395.46 352.46 L396.36 353.46 L397.25 354.47 L398.14 355.48 L399.02 356.48 L399.90 357.49 L400.77 358.49 L401.64 359.50 L402.50 360.51 L403.35 361.51 L404.21 362.52 L405.05 363.52 L405.90 364.53 L406.73 365.53 L407.57 366.54 L408.40 367.54 L409.22 368.55 L410.04 369.55 L410.86 370.56 L411.67 371.56 L412.48 372.57 L413.29 373.57 L414.09 374.58 L414.89 375.58 L415.68 376.58 L416.47 377.59 L417.26 378.59 L418.05 379.60 L418.83 380.60 L419.60 381.61 L420.38 382.61 L421.15 383.61 L421.92 384.62 L422.68 385.62 L423.45 386.63 L424.20 387.63 L424.96 388.63 L425.71 389.64 L426.46 390.64 L427.21 391.64 L427.96 392.65 L428.70 393.65 L429.44 394.66 L430.18 395.66 L430.91 396.66 L431.64 397.67 L432.37 398.67 L433.10 399.67 L433.82 400.68 L434.54 401.68 L435.26 402.68 L435.98 403.69 L436.69 404.69 L437.41 405.69 L438.12 406.70 L438.82 407.70 L439.53 408.70 L440.23 409.71 L440.94 410.71 L441.63 411.71 L442.33 412.71 L443.03 413.72 L443.72 414.72 L444.41 415.72 L445.10 416.73 L445.79 417.73 L446.47 418.73 L447.15 419.73 L447.84 420.74 L448.51 421.74 L449.19 422.74 L449.87 423.75 L450.54 424.75 L451.21 425.75 L451.88 426.75 L452.55 427.76 L453.22 428.76 L453.88 429.76 L454.55 430.76 L455.21 431.77 L455.87 432.77 L456.52 433.77 L457.18 434.77 L457.83 435.78 L458.49 436.78 L459.14 437.78 L459.79 438.78 L460.44 439.79 L461.08 440.79 L461.73 441.79 L462.37 442.79 L463.02 443.80 L463.66 444.80 L464.29 445.80 L464.93 446.80 L465.57 447.81 L466.20 448.81 L466.84 449.81 L467.47 450.81 L468.10 451.81 L468.73 452.82 L469.36 453.82 L469.98 454.82 L470.61 455.82 L471.23 456.83 L471.85 457.83 L472.47 458.83 L473.09 459.83 L473.71 460.83 L474.33 461.84 L474.94 462.84 L475.56 463.84 L476.17 464.84 L476.78 465.84 L477.40 466.85 L478.01 467.85 L478.61 468.85 L479.22 469.85 L479.83 470.85 L480.43 471.86 L481.03 472.86 L481.64 473.86 L482.24 474.86 L482.84 475.86 L483.44 476.87 L484.03 477.87 L484.63 478.87 L485.23 479.87 L485.82 480.87 L486.41 481.87 L487.01 482.88 L487.60 483.88 L488.19 484.88 L488.78 485.88 L489.37 486.88 L489.95 487.89 L490.54 488.89 L491.12 489.89 L491.71 490.89 L492.29 491.89 L492.87 492.89 L493.45 493.90 L494.03 494.90 L494.61 495.90 L495.19 496.90 L495.76 497.90 L496.34 498.90 L496.91 499.91 L497.49 500.91 L498.06 501.91 L498.63 502.91 L499.20 503.91 L499.77 504.91 L500.34 505.92 L500.91 506.92 L501.48 507.92 L502.04 508.92 L502.61 509.92 L503.17 510.92 L503.74 511.93 L504.30 512.93 L504.86 513.93 L505.42 514.93 L505.98 515.93 L506.54 516.93 L507.10 517.94 L507.66 518.94 L508.22 519.94 L508.77 520.94 L509.33 521.94 L509.88 522.94 L510.43 523.94 L510.99 524.95 L511.54 525.95 L512.09 526.95 L512.64 527.95 L513.19 528.95 L513.74 529.95 L514.28 530.95 L514.83 531.96 L515.38 532.96 L515.92 533.96 L516.47 534.96 L517.01 535.96 L517.55 536.96 L518.09 537.96 L518.64 538.97 L519.18 539.97 L519.72 540.97 L520.26 541.97 L520.79 542.97 L521.33 543.97 L521.87 544.97 L522.40 545.98 L522.94 546.98 L523.47 547.98 L524.01 548.98 L524.54 549.98 L525.07 550.98 L525.61 551.98 L526.14 552.98 L526.67 553.99 L527.20 554.99 L527.73 555.99 L528.25 556.99 L528.78 557.99 L529.31 558.99 L529.84 559.99 L530.36 561.00 L530.89 562.00 L531.41 563.00 L531.93 564.00 L532.46 565.00 L532.98 566.00 L533.50 567.00 L534.02 568.00 L534.54 569.01 L535.06 570.01 L535.58 571.01 L536.10 572.01 L536.62 573.01 L537.13 574.01 L537.65 575.01 L538.17 576.01 L538.68 577.02 L539.19 578.02 L539.71 579.02 L540.22 580.02 L540.73 581.02 L541.25 582.02 L541.76 583.02 L542.27 584.02 L542.78 585.02 L543.29 586.03 L543.80 587.03 L544.31 588.03 L544.81 589.03 L545.32 590.03 L545.83 591.03 L546.33 592.03 L546.84 593.03 L547.35 594.04 L547.85 595.04 L548.35 596.04 L548.86 597.04 L549.36 598.04 L549.86 599.04 L550.36 600.04 " style="fill:none;stroke:#0000FF;stroke-width:1;" /></g></svg>