<?xml version="1.0" standalone="no"?><!DOCTYPE svg PUBLIC "-//W3C//DTD SVG 1.1//EN" "http://www.w3.org/Graphics/SVG/1.1/DTD/svg11.dtd"><svg xmlns="http://www.w3.org/2000/svg" viewBox="0 0 650 600" version="1.1"><clipPath id="box"><rect x="0" y="0" width="650" height="600" style="fill:none;stroke:none;" /></clipPath><g clip-path="url(#box)"><rect x="0.00" y="0.00" width="650.00" height="600.00" style="fill:#FFFFFF;stroke:none;" /><path d="M325.00 0.00 L325.00 600.00 " style="fill:none;stroke:#000000;stroke-width:1;" /><path d="M318.50 600.00 L331.50 600.00 M318.50 500.00 L331.50 500.00 M318.50 400.00 L331.50 400.00 M318.50 300.00 L331.50 300.00 M318.50 200.00 L331.50 200.00 M318.50 100.00 L331.50 100.00 M318.50 0.00 L331.50 0.00 " style="fill:none;stroke:#000000;stroke-width:1;" /><path d="M0.00 300.00 L650.00 300.00 " style="fill:none;stroke:#000000;stroke-width:1;" /><path d="M0.00 293.50 L0.00 306.50 M108.33 293.50 L108.33 306.50 M216.67 293.50 L216.67 306.50 M325.00 293.50 L325.00 306.50 M433.33 293.50 L433.33 306.50 M541.67 293.50 L541.67 306.50 M650.00 293.50 L650.00 306.50 " style="fill:none;stroke:#000000;stroke-width:1;" /><text x="333.125" y="502.5" text-anchor="start" style="font:10px Droid Sans,Trebuchet MS,Arial,Helvetica,sans-serif;stroke:none;fill:#000000">-2</text><text x="333.125" y="402.5" text-anchor="start" style="font:10px Droid Sans,Trebuchet MS,Arial,Helvetica,sans-serif;stroke:none;fill:#000000">-1</text><text x="333.125" y="302.5" text-anchor="start" style="font:10px Droid Sans,Trebuchet MS,Arial,Helvetica,sans-serif;stroke:none;fill:#000000">0</text><text x="333.125" y="202.5" text-anchor="start" style="font:10px Droid Sans,Trebuchet MS,Arial,Helvetica,sans-serif;stroke:none;fill:#000000">1</text><text x="333.125" y="102.5" text-anchor="start" style="font:10px Droid Sans,Trebuchet MS,Arial,Helvetica,sans-serif;stroke:none;fill:#000000">2</text><text x="108.33333333333333" y="316.125" text-anchor="middle" style="font:10px Droid Sans,Trebuchet MS,Arial,Helvetica,sans-serif;stroke:none;fill:#000000">-2</text><text x="216.66666666666666" y="316.125" text-anchor="middle" style="font:10px Droid Sans,Trebuchet MS,Arial,Helvetica,sans-serif;stroke:none;fill:#000000">-1</text><text x="325" y="316.125" text-anchor="middle" style="font:10px Droid Sans,Trebuchet MS,Arial,Helvetica,sans-serif;stroke:none;fill:#000000">0</text><text x="433.3333333333333" y="316.125" text-anchor="middle" style="font:10px Droid Sans,Trebuchet MS,Arial,Helvetica,sans-serif;stroke:none;fill:#000000">1</text><text x="541.6666666666667" y="316.125" text-anchor="middle" style="font:10px Droid Sans,Trebuchet MS,Arial,Helvetica,sans-serif;stroke:none;fill:#000000">2</text><path d="M181.49 299.79 L181.49 299.34 L181.49 298.86 L181.50 298.24 L181.50 297.55 L181.51 296.80 L181.53 296.01 L181.55 295.20 L181.57 294.35 L181.60 293.49 L181.63 292.62 L181.66 291.73 L181.70 290.84 L181.75 289.93 L181.80 289.02 L181.85 288.10 L181.91 287.17 L181.97 286.24 L182.04 285.31 L182.11 284.37 L182.19 283.43 L182.27 282.49 L182.36 281.54 L182.45 280.60 L182.55 279.65 L182.65 278.69 L182.76 277.74 L182.87 276.78 L182.99 275.82 L183.12 274.87 L183.25 273.90 L183.38 272.94 L183.52 271.98 L183.66 271.02 L183.81 270.05 L183.97 269.09 L184.13 268.12 L184.30 267.15 L184.47 266.18 L184.65 265.22 L184.83 264.25 L185.02 263.28 L185.22 262.31 L185.42 261.33 L185.63 260.36 L185.84 259.39 L186.06 258.42 L186.28 257.45 L186.52 256.47 L186.76 255.50 L187.00 254.52 L187.25 253.55 L187.51 252.57 L187.77 251.60 L188.05 250.62 L188.32 249.65 L188.61 248.67 L188.90 247.70 L189.20 246.72 L189.51 245.75 L189.82 244.77 L190.15 243.79 L190.48 242.82 L190.81 241.84 L191.16 240.86 L191.51 239.88 L191.88 238.91 L192.25 237.93 L192.63 236.95 L193.01 235.98 L193.41 235.00 L193.82 234.02 L194.23 233.04 L194.66 232.07 L195.09 231.09 L195.54 230.11 L195.99 229.13 L196.46 228.16 L196.94 227.18 L197.43 226.20 L197.93 225.23 L198.44 224.25 L198.96 223.27 L199.50 222.30 L200.05 221.32 L200.61 220.34 L201.19 219.37 L201.78 218.39 L202.39 217.42 L203.01 216.44 L203.65 215.47 L204.30 214.49 L204.97 213.52 L205.66 212.55 L206.37 211.57 L207.10 210.60 L207.84 209.63 L208.61 208.66 L209.41 207.69 L210.22 206.72 L211.06 205.75 L211.93 204.78 L212.82 203.81 L213.75 202.84 L214.71 201.88 L215.70 200.91 L216.72 199.95 L217.79 198.99 L218.89 198.03 L220.05 197.07 L221.25 196.11 L222.51 195.16 L223.82 194.20 L225.20 193.25 L226.66 192.31 L228.20 191.37 L229.83 190.43 L231.58 189.50 L233.45 188.57 L235.45 187.67 L237.45 186.85 L239.45 186.10 L241.45 185.44 L243.45 184.84 L245.45 184.31 L247.45 183.85 L249.45 183.46 L251.45 183.12 L253.45 182.85 L255.45 182.64 L257.45 182.48 L259.45 182.38 L261.45 182.32 L263.45 182.32 L265.45 182.37 L267.45 182.47 L269.45 182.61 L271.45 182.80 L273.45 183.03 L275.45 183.31 L277.45 183.62 L279.45 183.98 L281.45 184.37 L283.45 184.80 L285.45 185.26 L287.45 185.76 L289.45 186.30 L291.45 186.86 L293.45 187.46 L295.45 188.09 L297.45 188.74 L299.45 189.42 L301.45 190.13 L303.45 190.87 L305.45 191.62 L307.45 192.40 L309.45 193.20 L311.45 194.02 L313.45 194.86 L315.45 195.72 L317.45 196.59 L319.45 197.48 L321.45 198.38 L323.45 199.29 L325.45 200.21 L327.45 201.14 L329.45 202.07 L331.45 203.01 L333.45 203.95 L335.45 204.90 L337.45 205.84 L339.45 206.78 L341.45 207.72 L343.45 208.64 L345.45 209.56 L347.45 210.46 L349.45 211.35 L351.45 212.23 L353.45 213.08 L355.45 213.91 L357.45 214.72 L359.45 215.49 L361.45 216.24 L363.45 216.95 L365.45 217.62 L367.45 218.25 L369.45 218.84 L371.45 219.37 L373.45 219.86 L375.45 220.29 L377.45 220.67 L379.45 220.98 L381.45 221.23 L383.45 221.42 L385.45 221.53 L387.45 221.57 L389.45 221.54 L391.45 221.43 L393.45 221.23 L395.45 220.96 L397.45 220.61 L399.45 220.17 L401.45 219.64 L403.45 219.03 L405.45 218.33 L407.45 217.55 L409.45 216.68 L411.45 215.73 L413.45 214.69 L415.37 213.61 L417.16 212.54 L418.82 211.48 L420.40 210.43 L421.90 209.38 L423.33 208.34 L424.70 207.31 L426.03 206.27 L427.31 205.24 L428.56 204.21 L429.76 203.18 L430.94 202.16 L432.09 201.14 L433.21 200.11 L434.31 199.09 L435.38 198.07 L436.44 197.05 L437.47 196.04 L438.49 195.02 L439.49 194.00 L440.47 192.99 L441.44 191.97 L442.40 190.96 L443.34 189.95 L444.27 188.93 L445.19 187.92 L446.10 186.91 L446.99 185.90 L447.88 184.89 L448.76 183.88 L449.63 182.87 L450.48 181.86 L451.33 180.85 L452.18 179.84 L453.01 178.83 L453.84 177.82 L454.66 176.81 L455.47 175.80 L456.28 174.80 L457.08 173.79 L457.87 172.78 L458.66 171.77 L459.44 170.77 L460.22 169.76 L460.99 168.75 L461.75 167.74 L462.51 166.74 L463.27 165.73 L464.02 164.73 L464.77 163.72 L465.51 162.71 L466.24 161.71 L466.98 160.70 L467.71 159.70 L468.43 158.69 L469.15 157.69 L469.87 156.68 L470.58 155.68 L471.29 154.67 L472.00 153.67 L472.70 152.66 L473.40 151.66 L474.10 150.65 L474.79 149.65 L475.48 148.64 L476.16 147.64 L476.85 146.63 L477.53 145.63 L478.21 144.62 L478.88 143.62 L479.55 142.62 L480.22 141.61 L480.89 140.61 L481.55 139.60 L482.21 138.60 L482.87 137.60 L483.53 136.59 L484.18 135.59 L484.83 134.59 L485.48 133.58 L486.13 132.58 L486.77 131.58 L487.42 130.57 L488.06 129.57 L488.70 128.57 L489.33 127.56 L489.97 126.56 L490.60 125.56 L491.23 124.55 L491.85 123.55 L492.48 122.55 L493.10 121.54 L493.73 120.54 L494.35 119.54 L494.97 118.53 L495.58 117.53 L496.20 116.53 L496.81 115.53 L497.42 114.52 L498.03 113.52 L498.64 112.52 L499.25 111.52 L499.85 110.51 L500.45 109.51 L501.06 108.51 L501.66 107.50 L502.25 106.50 L502.85 105.50 L503.45 104.50 L504.04 103.49 L504.63 102.49 L505.23 101.49 L505.81 100.49 L506.40 99.48 L506.99 98.48 L507.58 97.48 L508.16 96.48 L508.74 95.48 L509.32 94.47 L509.90 93.47 L510.48 92.47 L511.06 91.47 L511.64 90.46 L512.21 89.46 L512.79 88.46 L513.36 87.46 L513.93 86.46 L514.50 85.45 L515.07 84.45 L515.64 83.45 L516.20 82.45 L516.77 81.45 L517.33 80.44 L517.90 79.44 L518.46 78.44 L519.02 77.44 L519.58 76.44 L520.14 75.43 L520.69 74.43 L521.25 73.43 L521.81 72.43 L522.36 71.43 L522.91 70.42 L523.47 69.42 L524.02 68.42 L524.57 67.42 L525.12 66.42 L525.67 65.42 L526.21 64.41 L526.76 63.41 L527.31 62.41 L527.85 61.41 L528.39 60.41 L528.94 59.40 L529.48 58.40 L530.02 57.40 L530.56 56.40 L531.10 55.40 L531.64 54.40 L532.17 53.39 L532.71 52.39 L533.24 51.39 L533.78 50.39 L534.31 49.39 L534.85 48.39 L535.38 47.38 L535.91 46.38 L536.44 45.38 L536.97 44.38 L537.50 43.38 L538.02 42.38 L538.55 41.38 L539.08 40.37 L539.60 39.37 L540.13 38.37 L540.65 37.37 L541.17 36.37 L541.70 35.37 L542.22 34.37 L542.74 33.36 L543.26 32.36 L543.78 31.36 L544.30 30.36 L544.81 29.36 L545.33 28.36 L545.85 27.36 L546.36 26.35 L546.88 25.35 L547.39 24.35 L547.91 23.35 L548.42 22.35 L548.93 21.35 L549.44 20.35 L549.95 19.34 L550.46 18.34 L550.97 17.34 L551.48 16.34 L551.99 15.34 L552.49 14.34 L553.00 13.34 L553.51 12.33 L554.01 11.33 L554.52 10.33 L555.02 9.33 L555.52 8.33 L556.03 7.33 L556.53 6.33 L557.03 5.33 L557.53 4.32 L558.03 3.32 L558.53 2.32 L559.03 1.32 L559.53 0.32 L560.02 -0.68 " style="fill:none;stroke:#0000FF;stroke-width:1;" /><path d="M181.49 300.21 L181.49 300.66 L181.49 301.14 L181.50 301.76 L181.50 302.45 L181.51 303.20 L181.53 303.99 L181.55 304.80 L181.57 305.65 L181.60 306.51 L181.63 307.38 L181.66 308.27 L181.70 309.16 L181.75 310.07 L181.80 310.98 L181.85 311.90 L181.91 312.83 L181.97 313.76 L182.04 314.69 L182.11 315.63 L182.19 316.57 L182.27 317.51 L182.36 318.46 L182.45 319.40 L182.55 320.35 L182.65 321.31 L182.76 322.26 L182.87 323.22 L182.99 324.18 L183.12 325.13 L183.25 326.10 L183.38 327.06 L183.52 328.02 L183.66 328.98 L183.81 329.95 L183.97 330.91 L184.13 331.88 L184.30 332.85 L184.47 333.82 L184.65 334.78 L184.83 335.75 L185.02 336.72 L185.22 337.69 L185.42 338.67 L185.63 339.64 L185.84 340.61 L186.06 341.58 L186.28 342.55 L186.52 343.53 L186.76 344.50 L187.00 345.48 L187.25 346.45 L187.51 347.43 L187.77 348.40 L188.05 349.38 L188.32 350.35 L188.61 351.33 L188.90 352.30 L189.20 353.28 L189.51 354.25 L189.82 355.23 L190.15 356.21 L190.48 357.18 L190.81 358.16 L191.16 359.14 L191.51 360.12 L191.88 361.09 L192.25 362.07 L192.63 363.05 L193.01 364.02 L193.41 365.00 L193.82 365.98 L194.23 366.96 L194.66 367.93 L195.09 368.91 L195.54 369.89 L195.99 370.87 L196.46 371.84 L196.94 372.82 L197.43 373.80 L197.93 374.77 L198.44 375.75 L198.96 376.73 L199.50 377.70 L200.05 378.68 L200.61 379.66 L201.19 380.63 L201.78 381.61 L202.39 382.58 L203.01 383.56 L203.65 384.53 L204.30 385.51 L204.97 386.48 L205.66 387.45 L206.37 388.43 L207.10 389.40 L207.84 390.37 L208.61 391.34 L209.41 392.31 L210.22 393.28 L211.06 394.25 L211.93 395.22 L212.82 396.19 L213.75 397.16 L214.71 398.12 L215.70 399.09 L216.72 400.05 L217.79 401.01 L218.89 401.97 L220.05 402.93 L221.25 403.89 L222.51 404.84 L223.82 405.80 L225.20 406.75 L226.66 407.69 L228.20 408.63 L229.83 409.57 L231.58 410.50 L233.45 411.43 L235.45 412.33 L237.45 413.15 L239.45 413.90 L241.45 414.56 L243.45 415.16 L245.45 415.69 L247.45 416.15 L249.45 416.54 L251.45 416.88 L253.45 417.15 L255.45 417.36 L257.45 417.52 L259.45 417.62 L261.45 417.68 L263.45 417.68 L265.45 417.63 L267.45 417.53 L269.45 417.39 L271.45 417.20 L273.45 416.97 L275.45 416.69 L277.45 416.38 L279.45 416.02 L281.45 415.63 L283.45 415.20 L285.45 414.74 L287.45 414.24 L289.45 413.70 L291.45 413.14 L293.45 412.54 L295.45 411.91 L297.45 411.26 L299.45 410.58 L301.45 409.87 L303.45 409.13 L305.45 408.38 L307.45 407.60 L309.45 406.80 L311.45 405.98 L313.45 405.14 L315.45 404.28 L317.45 403.41 L319.45 402.52 L321.45 401.62 L323.45 400.71 L325.45 399.79 L327.45 398.86 L329.45 397.93 L331.45 396.99 L333.45 396.05 L335.45 395.10 L337.45 394.16 L339.45 393.22 L341.45 392.28 L343.45 391.36 L345.45 390.44 L347.45 389.54 L349.45 388.65 L351.45 387.77 L353.45 386.92 L355.45 386.09 L357.45 385.28 L359.45 384.51 L361.45 383.76 L363.45 383.05 L365.45 382.38 L367.45 381.75 L369.45 381.16 L371.45 380.63 L373.45 380.14 L375.45 379.71 L377.45 379.33 L379.45 379.02 L381.45 378.77 L383.45 378.58 L385.45 378.47 L387.45 378.43 L389.45 378.46 L391.45 378.57 L393.45 378.77 L395.45 379.04 L397.45 379.39 L399.45 379.83 L401.45 380.36 L403.45 380.97 L405.45 381.67 L407.45 382.45 L409.45 383.32 L411.45 384.27 L413.45 385.31 L415.37 386.39 L417.16 387.46 L418.82 388.52 L420.40 389.57 L421.90 390.62 L423.33 391.66 L424.70 392.69 L426.03 393.73 L427.31 394.76 L428.56 395.79 L429.76 396.82 L430.94 397.84 L432.09 398.86 L433.21 399.89 L434.31 400.91 L435.38 401.93 L436.44 402.95 L437.47 403.96 L438.49 404.98 L439.49 406.00 L440.47 407.01 L441.44 408.03 L442.40 409.04 L443.34 410.05 L444.27 411.07 L445.19 412.08 L446.10 413.09 L446.99 414.10 L447.88 415.11 L448.76 416.12 L449.63 417.13 L450.48 418.14 L451.33 419.15 L452.18 420.16 L453.01 421.17 L453.84 422.18 L454.66 423.19 L455.47 424.20 L456.28 425.20 L457.08 426.21 L457.87 427.22 L458.66 428.23 L459.44 429.23 L460.22 430.24 L460.99 431.25 L461.75 432.26 L462.51 433.26 L463.27 434.27 L464.02 435.27 L464.77 436.28 L465.51 437.29 L466.24 438.29 L466.98 439.30 L467.71 440.30 L468.43 441.31 L469.15 442.31 L469.87 443.32 L470.58 444.32 L471.29 445.33 L472.00 446.33 L472.70 447.34 L473.40 448.34 L474.10 449.35 L474.79 450.35 L475.48 451.36 L476.16 452.36 L476.85 453.37 L477.53 454.37 L478.21 455.38 L478.88 456.38 L479.55 457.38 L480.22 458.39 L480.89 459.39 L481.55 460.40 L482.21 461.40 L482.87 462.40 L483.53 463.41 L484.18 464.41 L484.83 465.41 L485.48 466.42 L486.13 467.42 L486.77 468.42 L487.42 469.43 L488.06 470.43 L488.70 471.43 L489.33 472.44 L489.97 473.44 L490.60 474.44 L491.23 475.45 L491.85 476.45 L492.48 477.45 L493.10 478.46 L493.73 479.46 L494.35 480.46 L494.97 481.47 L495.58 482.47 L496.20 483.47 L496.81 484.47 L497.42 485.48 L498.03 486.48 L498.64 487.48 L499.25 488.48 L499.85 489.49 L500.45 490.49 L501.06 491.49 L501.66 492.50 L502.25 493.50 L502.85 494.50 L503.45 495.50 L504.04 496.51 L504.63 497.51 L505.23 498.51 L505.81 499.51 L506.40 500.52 L506.99 501.52 L507.58 502.52 L508.16 503.52 L508.74 504.52 L509.32 505.53 L509.90 506.53 L510.48 507.53 L511.06 508.53 L511.64 509.54 L512.21 510.54 L512.79 511.54 L513.36 512.54 L513.93 513.54 L514.50 514.55 L515.07 515.55 L515.64 516.55 L516.20 517.55 L516.77 518.55 L517.33 519.56 L517.90 520.56 L518.46 521.56 L519.02 522.56 L519.58 523.56 L520.14 524.57 L520.69 525.57 L521.25 526.57 L521.81 527.57 L522.36 528.57 L522.91 529.58 L523.47 530.58 L524.02 531.58 L524.57 532.58 L525.12 533.58 L525.67 534.58 L526.21 535.59 L526.76 536.59 L527.31 537.59 L527.85 538.59 L528.39 539.59 L528.94 540.60 L529.48 541.60 L530.02 542.60 L530.56 543.60 L531.10 544.60 L531.64 545.60 L532.17 546.61 L532.71 547.61 L533.24 548.61 L533.78 549.61 L534.31 550.61 L534.85 551.61 L535.38 552.62 L535.91 553.62 L536.44 554.62 L536.97 555.62 L537.50 556.62 L538.02 557.62 L538.55 558.62 L539.08 559.63 L539.60 560.63 L540.13 561.63 L540.65 562.63 L541.17 563.63 L541.70 564.63 L542.22 565.63 L542.74 566.64 L543.26 567.64 L543.78 568.64 L544.30 569.64 L544.81 570.64 L545.33 571.64 L545.85 572.64 L546.36 573.65 L546.88 574.65 L547.39 575.65 L547.91 576.65 L548.42 577.65 L548.93 578.65 L549.44 579.65 L549.95 580.66 L550.46 581.66 L550.97 582.66 L551.48 583.66 L551.99 584.66 L552.49 585.66 L553.00 586.66 L553.51 587.67 L554.01 588.67 L554.52 589.67 L555.02 590.67 L555.52 591.67 L556.03 592.67 L556.53 593.67 L557.03 594.67 L557.53 595.68 L558.03 596.68 L558.53 597.68 L559.03 598.68 L559.53 599.68 L560.02 600.68 " style="fill:none;stroke:#0000FF;stroke-width:1;" /></g></svg>